<svg width="333" height="138" viewBox="0 0 333 138" fill="none" xmlns="http://www.w3.org/2000/svg">
<g filter="url(#filter0_d_10_92)">
<path d="M169.023 74.2891C170.273 74.2891 170.898 74.9922 170.898 76.3984C170.898 77.3359 170.573 78.5208 169.922 79.9531C169.297 81.3594 168.385 82.6875 167.188 83.9375C165.99 85.1615 164.609 86.4375 163.047 87.7656C161.51 89.0938 159.701 90.487 157.617 91.9453C155.56 93.4036 153.281 94.849 150.781 96.2812C148.281 97.7135 145.625 99.0026 142.812 100.148C136.589 102.701 130.56 103.977 124.727 103.977C120.273 103.977 116.38 102.818 113.047 100.5C109.557 98.0781 107.812 95.1354 107.812 91.6719C107.812 86.2292 110.742 81.0599 116.602 76.1641C121.654 71.9453 127.604 68.6771 134.453 66.3594C138.62 64.9531 142.148 64.25 145.039 64.25C147.383 64.25 149.362 64.8229 150.977 65.9688C152.695 67.2188 153.555 68.8984 153.555 71.0078C153.555 74.3151 150.938 77.974 145.703 81.9844C144.87 82.6354 144.115 83.1823 143.438 83.625L142.031 84.5625C139.427 86.3854 135.469 88.4297 130.156 90.6953C131.797 91.5547 133.32 91.9844 134.727 91.9844C136.159 91.9844 137.435 91.8151 138.555 91.4766C139.701 91.138 140.99 90.6562 142.422 90.0312C143.854 89.4062 145.378 88.6641 146.992 87.8047C148.633 86.9193 150.286 85.9557 151.953 84.9141C155.677 82.5964 158.906 80.2266 161.641 77.8047C163.073 76.4766 164.896 75.4219 167.109 74.6406C167.839 74.4062 168.477 74.2891 169.023 74.2891ZM125.938 85.2656L128.086 84.1719C128.789 83.8073 129.414 83.4688 129.961 83.1562C135.221 80.1354 138.216 78.2734 138.945 77.5703C139.674 76.8672 140.039 76.3854 140.039 76.125C140.039 75.8385 139.961 75.513 139.805 75.1484C139.648 74.7839 139.44 74.4583 139.18 74.1719C138.555 73.4427 137.891 73.0781 137.188 73.0781C136.484 73.0781 135.703 73.2083 134.844 73.4688C134.01 73.7292 133.164 74.0938 132.305 74.5625C131.445 75.0052 130.612 75.5521 129.805 76.2031C129.023 76.8281 128.333 77.5052 127.734 78.2344C126.354 79.875 125.664 81.2943 125.664 82.4922C125.664 83.6901 125.755 84.6146 125.938 85.2656ZM204.648 76.2422C207.201 76.2422 208.477 77.1276 208.477 78.8984C208.477 80.5911 207.279 82.7786 204.883 85.4609L202.969 87.4531C200.651 89.8229 197.943 92.1536 194.844 94.4453C191.771 96.737 189.062 98.5469 186.719 99.875C181.276 102.896 176.341 104.406 171.914 104.406C167.747 104.406 164.349 103.156 161.719 100.656C159.453 98.4948 158.32 96.2161 158.32 93.8203C158.32 91.4245 158.555 89.0417 159.023 86.6719C159.492 84.3021 160.104 81.9844 160.859 79.7188C162.37 75.1094 164.023 71.1901 165.82 67.9609C166.289 67.0755 166.523 66.5026 166.523 66.2422H161.484C159.583 66.2422 158.112 65.7995 157.07 64.9141C156.029 64.0286 155.508 63.026 155.508 61.9062C155.508 60.7865 155.716 59.9661 156.133 59.4453C156.549 58.9245 157.07 58.5469 157.695 58.3125C158.581 57.9479 159.883 57.7656 161.602 57.7656L171.172 57.8047C171.38 57.7266 171.797 57.1667 172.422 56.125L174.805 52.0234C175.82 50.2005 176.836 48.8594 177.852 48C178.893 47.1406 180.104 46.7109 181.484 46.7109C182.891 46.7109 184.062 46.8411 185 47.1016C185.964 47.362 186.771 47.6875 187.422 48.0781C188.698 48.9115 189.336 49.8229 189.336 50.8125C189.336 51.2292 189.193 51.7891 188.906 52.4922L186.719 57.8047L205.273 57.7656C206.888 57.7656 207.695 58.599 207.695 60.2656C207.695 64.224 204.167 66.2031 197.109 66.2031L182.812 66.2422C182.5 66.3984 181.966 67.1536 181.211 68.5078L179.453 71.75C179.01 72.5573 178.698 73.1693 178.516 73.5859L177.656 75.5C175.911 79.4323 175.039 82.2708 175.039 84.0156C175.039 85.7604 175.495 87.2188 176.406 88.3906C177.344 89.5625 178.581 90.1484 180.117 90.1484C181.654 90.1484 183.151 89.849 184.609 89.25C186.094 88.651 187.539 87.9219 188.945 87.0625C191.497 85.474 193.503 84.0026 194.961 82.6484C196.419 81.2943 197.63 80.2656 198.594 79.5625C198.594 79.5625 199.505 78.9245 201.328 77.6484C202.734 76.7109 203.841 76.2422 204.648 76.2422ZM199.219 90.1094C198.724 90.1094 198.242 89.9922 197.773 89.7578C197.279 89.5234 196.823 89.1458 196.406 88.625C195.495 87.4792 195.039 85.9167 195.039 83.9375C195.039 81.8281 196.302 79.1979 198.828 76.0469C201.276 73 204.128 70.3698 207.383 68.1562C210.872 65.7604 213.867 64.5625 216.367 64.5625C218.581 64.5625 220.078 65.1875 220.859 66.4375L221.406 67.2969C221.823 67.9479 222.24 68.2734 222.656 68.2734C223.073 68.2734 223.724 68.2344 224.609 68.1562L230.156 67.7656C231.016 67.6875 231.693 67.6484 232.188 67.6484C232.682 67.6484 233.242 67.8307 233.867 68.1953C234.518 68.5339 235.091 68.9896 235.586 69.5625C236.68 70.8646 237.227 72.2969 237.227 73.8594C237.227 75.474 235.443 78.013 231.875 81.4766L229.297 84.0547C227.448 85.9557 226.523 87.1536 226.523 87.6484C226.523 88.1432 226.758 88.5859 227.227 88.9766C227.695 89.3411 228.203 89.5234 228.75 89.5234C229.297 89.5234 229.909 89.3802 230.586 89.0938C231.289 88.7812 232.148 88.3385 233.164 87.7656C234.18 87.1667 235.339 86.4505 236.641 85.6172C240.208 83.2734 242.591 81.6589 243.789 80.7734L247.031 78.4688C249.245 76.9062 250.82 76.125 251.758 76.125C252.695 76.125 253.464 76.3333 254.062 76.75C254.661 77.1406 254.961 77.8307 254.961 78.8203C254.961 79.8099 254.453 81.138 253.438 82.8047C252.422 84.4714 251.315 85.9167 250.117 87.1406C248.945 88.3646 247.799 89.4974 246.68 90.5391C245.56 91.5807 244.232 92.7135 242.695 93.9375C241.185 95.1354 239.505 96.3594 237.656 97.6094C235.807 98.8333 233.854 99.9401 231.797 100.93C227.135 103.195 222.852 104.328 218.945 104.328C213.242 104.328 209.766 102.857 208.516 99.9141C208.125 99.0286 207.93 98.0391 207.93 96.9453C207.93 95.8516 208.138 94.6797 208.555 93.4297C208.971 92.1536 209.518 90.8906 210.195 89.6406C211.549 87.1667 213.151 84.9792 215 83.0781C216.562 81.4375 217.344 80.4609 217.344 80.1484C217.344 79.6536 217.057 79.3411 216.484 79.2109C215.938 79.0807 215.117 79.0156 214.023 79.0156C213.555 79.0156 212.552 79.6927 211.016 81.0469L207.188 84.5625C203.125 88.2604 200.469 90.1094 199.219 90.1094ZM315.664 73.6641C316.497 73.6641 316.914 74.3672 316.914 75.7734C316.914 78.1953 315.221 81.3333 311.836 85.1875L309.609 87.4531C302.865 94.1979 296.51 98.6901 290.547 100.93C286.849 102.31 284.193 102.245 282.578 100.734C281.25 99.4583 280.195 97.401 279.414 94.5625L278.477 91.1641L270.156 96.2812L265.352 99.0156C259.622 102.141 255.326 103.703 252.461 103.703C248.789 103.703 245.729 102.284 243.281 99.4453C240.938 96.763 239.766 93.651 239.766 90.1094C239.766 86.6198 241.159 83.5078 243.945 80.7734C247.93 76.8672 254.219 73.2865 262.812 70.0312C270.938 66.9844 277.5 65.4609 282.5 65.4609C284.193 65.4609 285.039 66.2943 285.039 67.9609C285.039 69.1068 284.818 69.9661 284.375 70.5391C283.932 71.112 283.021 71.6979 281.641 72.2969L276.719 74.4062C269.427 77.4531 264.089 80.6172 260.703 83.8984C259.74 84.8099 259.258 85.6953 259.258 86.5547C259.258 87.4141 259.948 87.8438 261.328 87.8438C262.682 87.8438 265.833 86.3854 270.781 83.4688L274.023 81.5547C279.049 78.5339 283.255 77.0234 286.641 77.0234C289.505 77.0234 291.406 78.2865 292.344 80.8125C292.578 81.4896 292.799 82.1797 293.008 82.8828C293.216 83.5599 293.424 84.1719 293.633 84.7188C294.102 85.9948 294.518 86.6328 294.883 86.6328C295.273 86.6328 295.82 86.4505 296.523 86.0859C297.227 85.6953 297.995 85.2135 298.828 84.6406C299.688 84.0417 300.573 83.3906 301.484 82.6875L306.211 78.8984C310.404 75.4089 313.555 73.6641 315.664 73.6641Z" fill="black"/>
<path d="M18.4404 100.744C16.2204 103.573 14.3942 105.131 12.9619 105.417C11.5654 105.739 10.4017 105.775 9.4707 105.524C8.53971 105.274 7.71615 104.862 7 104.289C5.49609 103 4.74414 101.281 4.74414 99.1328C4.74414 97.5573 5.22754 95.9818 6.19434 94.4062C27.07 61.2129 38.4209 43.2376 40.2471 40.4805C44.5439 34.1068 47.0326 30.526 47.7129 29.7383L49.0557 28.127C53.0661 23.5078 58.276 21.1982 64.6855 21.1982C69.6628 21.1982 73.0645 22.2904 74.8906 24.4746C75.3203 24.9401 75.5352 25.8353 75.5352 27.1602C75.571 28.485 75.6426 30.5977 75.75 33.498L76.0186 42.7363C76.126 45.9948 76.2513 49.3249 76.3945 52.7266L76.7168 62.7168C77.0033 69.1621 77.2539 74.7122 77.4688 79.3672C78.8652 76.8965 80.2796 74.014 81.7119 70.7197L86.2773 60.2998C90.431 50.9899 94.4414 43.6315 98.3086 38.2246C100.743 34.7513 104.754 33.0146 110.34 33.0146C114.458 33.0146 118.146 33.9098 121.404 35.7002C123.374 36.7744 124.34 37.7233 124.305 38.5469C124.305 39.2988 124.036 40.015 123.499 40.6953L122.371 42.2529C119.829 45.7979 117.322 49.486 114.852 53.3174L107.654 64.7578C97.5566 81.444 91.7021 91.0225 90.0908 93.4932C88.4795 95.9639 87.2441 97.7005 86.3848 98.7031C85.5612 99.6699 84.4691 100.493 83.1084 101.174C81.7835 101.854 80.2617 102.463 78.543 103C74.819 104.182 71.7217 104.772 69.251 104.772C65.0973 104.772 62.2865 104.182 60.8184 103C59.2428 101.568 57.0228 93.2604 54.1582 78.0781L52.332 67.9805C51.7591 64.543 51.2399 61.1234 50.7744 57.7217C49.5928 59.5479 48.071 61.7142 46.209 64.2207L30.418 85.2754L18.4404 100.744Z" fill="#FF4500"/>
</g>
<defs>
<filter id="filter0_d_10_92" x="0.744141" y="19.1982" width="332.17" height="104.702" filterUnits="userSpaceOnUse" color-interpolation-filters="sRGB">
<feFlood flood-opacity="0" result="BackgroundImageFix"/>
<feColorMatrix in="SourceAlpha" type="matrix" values="0 0 0 0 0 0 0 0 0 0 0 0 0 0 0 0 0 0 127 0" result="hardAlpha"/>
<feOffset dx="6" dy="8"/>
<feGaussianBlur stdDeviation="5"/>
<feComposite in2="hardAlpha" operator="out"/>
<feColorMatrix type="matrix" values="0 0 0 0 0 0 0 0 0 0 0 0 0 0 0 0 0 0 0.25 0"/>
<feBlend mode="normal" in2="BackgroundImageFix" result="effect1_dropShadow_10_92"/>
<feBlend mode="normal" in="SourceGraphic" in2="effect1_dropShadow_10_92" result="shape"/>
</filter>
</defs>
</svg>
